<svg xmlns="http://www.w3.org/2000/svg" version="1.1" xmlns:xlink="http://www.w3.org/1999/xlink" xmlns:svgjs="http://svgjs.dev/svgjs" width="100px" height="100px"><svg xmlns="http://www.w3.org/2000/svg" viewBox="0 0 50 50" width="100px" height="100px" fill-rule="evenodd" clip-rule="evenodd" baseProfile="basic"><polygon fill="#6189ff" fill-rule="evenodd" points="17.894,40.501 17.894,36.501 20.492,38.001 20.492,15.001 13.563,11.001 13.563,14.001 10.099,12.001 10.099,5.001 36.08,20.001 36.08,27.001 32.616,25.001 32.616,22.001 23.956,17.001 23.956,40.001 26.554,41.501 26.554,45.501" clip-rule="evenodd"></polygon><polygon fill="#577be6" fill-rule="evenodd" points="36.08,20.001 39.544,18.001 13.563,3.001 10.099,5.001" clip-rule="evenodd"></polygon><polygon fill="#4460b3" fill-rule="evenodd" points="13.563,14.001 16.161,12.501 13.563,11.001" clip-rule="evenodd"></polygon><polygon fill="#4460b3" fill-rule="evenodd" points="36.08,27.001 39.544,25.001 39.544,18.001 36.08,20.001" clip-rule="evenodd"></polygon><polygon fill="#4460b3" fill-rule="evenodd" points="23.956,40.001 27.42,38.001 27.42,19.001 23.956,17.001" clip-rule="evenodd"></polygon><polygon fill="#4460b3" fill-rule="evenodd" points="26.554,45.501 30.018,43.501 30.018,39.501 26.554,41.501" clip-rule="evenodd"></polygon><polygon fill="#577be6" fill-rule="evenodd" points="27.42,38.001 30.018,39.501 26.554,41.501 23.956,40.001" clip-rule="evenodd"></polygon><polygon fill="#577be6" fill-rule="evenodd" points="20.492,38.001 20.492,35.001 17.894,36.501" clip-rule="evenodd"></polygon></svg><style>@media (prefers-color-scheme: light) { :root { filter: none; } }
@media (prefers-color-scheme: dark) { :root { filter: none; } }
</style></svg>