<svg xmlns="http://www.w3.org/2000/svg" xmlns:xlink="http://www.w3.org/1999/xlink" width="500" zoomAndPan="magnify" viewBox="0 0 375 374.999991" height="500" preserveAspectRatio="xMidYMid meet" version="1.0"><defs><g/><clipPath id="70c1253134"><path d="M 0 86.929688 L 84.65625 86.929688 L 84.65625 269.527344 L 0 269.527344 Z M 0 86.929688 " clip-rule="nonzero"/></clipPath></defs><rect x="-37.5" width="450" fill="#ffffff" y="-37.499999" height="449.999989" fill-opacity="1"/><rect x="-37.5" width="450" fill="#000000" y="-37.499999" height="449.999989" fill-opacity="1"/><g clip-path="url(#70c1253134)"><path fill="#ffffff" d="M 0 86.929688 L 84.65625 86.929688 L 84.65625 269.472656 L 0 269.472656 Z M 0 86.929688 " fill-opacity="1" fill-rule="nonzero"/></g><g fill="#000000" fill-opacity="1"><g transform="translate(72.289263, 251.03802)"><g><path d="M -61.921875 -2.734375 L -61.921875 -19.828125 C -61.921875 -24.242188 -60.695312 -27.554688 -58.25 -29.765625 C -55.800781 -31.984375 -52.171875 -33.113281 -47.359375 -33.15625 L -18.390625 -33.3125 C -12.285156 -33.351562 -7.691406 -32.289062 -4.609375 -30.125 C -1.535156 -27.96875 0 -24.390625 0 -19.390625 L 0 -2.734375 Z M -10.953125 -17.375 C -10.953125 -19.632812 -12.0625 -20.765625 -14.28125 -20.765625 L -46.21875 -20.765625 C -47.601562 -20.765625 -48.644531 -20.65625 -49.34375 -20.4375 C -50.039062 -20.21875 -50.507812 -19.820312 -50.75 -19.25 C -50.988281 -18.675781 -51.109375 -17.785156 -51.109375 -16.578125 L -51.109375 -15.21875 L -10.953125 -15.21875 Z M -10.953125 -17.375 "/></g></g></g><g fill="#000000" fill-opacity="1"><g transform="translate(72.289263, 205.762002)"><g><path d="M 0 -2.734375 L -61.921875 -2.734375 L -61.921875 -27.546875 L -49.96875 -27.546875 L -49.96875 -15.359375 L -37.921875 -15.359375 L -37.921875 -27.03125 L -26.234375 -27.03125 L -26.234375 -15.359375 L -12.046875 -15.359375 L -12.046875 -28.328125 L 0 -28.328125 Z M 0 -2.734375 "/></g></g></g><g fill="#000000" fill-opacity="1"><g transform="translate(72.289263, 166.325573)"><g><path d="M 0 -8.4375 L -62 -0.796875 L -62 -12.609375 L -19.828125 -17.15625 L -62 -21.203125 L -62 -33.015625 L 0 -25.375 Z M 0 -8.4375 "/></g></g></g><g fill="#000000" fill-opacity="1"><g transform="translate(72.289263, 122.779811)"><g><path d="M 0 -2.15625 L -61.921875 -2.15625 L -61.921875 -14.125 L 0 -14.125 Z M 0 -2.15625 "/></g></g></g><g fill="#f43f5e" fill-opacity="1"><g transform="translate(82.971378, 270.165652)"><g><path d="M 8.09375 -183.015625 L 58.59375 -183.015625 C 71.65625 -183.015625 81.453125 -179.390625 87.984375 -172.140625 C 94.523438 -164.898438 97.867188 -154.179688 98.015625 -139.984375 L 98.4375 -54.328125 C 98.570312 -36.285156 95.441406 -22.71875 89.046875 -13.625 C 82.660156 -4.539062 72.082031 0 57.3125 0 L 8.09375 0 Z M 51.34375 -32.390625 C 58.019531 -32.390625 61.359375 -35.65625 61.359375 -42.1875 L 61.359375 -136.578125 C 61.359375 -140.691406 61.035156 -143.78125 60.390625 -145.84375 C 59.753906 -147.90625 58.582031 -149.289062 56.875 -150 C 55.175781 -150.707031 52.550781 -151.0625 49 -151.0625 L 44.953125 -151.0625 L 44.953125 -32.390625 Z M 51.34375 -32.390625 "/></g></g></g><g fill="#f43f5e" fill-opacity="1"><g transform="translate(188.006504, 270.165652)"><g><path d="M 8.09375 0 L 8.09375 -183.015625 L 81.390625 -183.015625 L 81.390625 -147.65625 L 45.375 -147.65625 L 45.375 -112.078125 L 79.90625 -112.078125 L 79.90625 -77.5625 L 45.375 -77.5625 L 45.375 -35.578125 L 83.734375 -35.578125 L 83.734375 0 Z M 8.09375 0 "/></g></g></g><g fill="#f43f5e" fill-opacity="1"><g transform="translate(275.784342, 270.165652)"><g><path d="M 24.921875 0 L 2.34375 -183.234375 L 37.28125 -183.234375 L 50.703125 -58.59375 L 62.640625 -183.234375 L 97.578125 -183.234375 L 75 0 Z M 24.921875 0 "/></g></g></g><g fill="#ffffff" fill-opacity="1"><g transform="translate(353.86003, 269.826661)"><g><path d="M 0.546875 0 L 0.546875 -2.921875 L 4.046875 -2.921875 L 4.046875 0 Z M 0.546875 0 "/></g></g></g><g fill="#ffffff" fill-opacity="1"><g transform="translate(358.438228, 269.826661)"><g><path d="M 0.59375 0 L 0.59375 -17.1875 L 3.921875 -17.1875 L 3.921875 0 Z M 0.59375 0 "/></g></g></g><g fill="#ffffff" fill-opacity="1"><g transform="translate(362.976439, 269.826661)"><g><path d="M 4.859375 0.15625 C 3.472656 0.15625 2.421875 -0.265625 1.703125 -1.109375 C 0.984375 -1.953125 0.625 -3.144531 0.625 -4.6875 L 0.625 -12.859375 C 0.625 -14.335938 0.984375 -15.453125 1.703125 -16.203125 C 2.421875 -16.960938 3.472656 -17.34375 4.859375 -17.34375 C 6.242188 -17.34375 7.296875 -16.960938 8.015625 -16.203125 C 8.734375 -15.453125 9.09375 -14.335938 9.09375 -12.859375 L 9.09375 -4.6875 C 9.09375 -3.132812 8.734375 -1.9375 8.015625 -1.09375 C 7.296875 -0.257812 6.242188 0.15625 4.859375 0.15625 Z M 4.859375 -3 C 5.160156 -3 5.363281 -3.128906 5.46875 -3.390625 C 5.582031 -3.660156 5.640625 -4.035156 5.640625 -4.515625 L 5.640625 -12.921875 C 5.640625 -13.296875 5.585938 -13.597656 5.484375 -13.828125 C 5.390625 -14.066406 5.1875 -14.1875 4.875 -14.1875 C 4.300781 -14.1875 4.015625 -13.75 4.015625 -12.875 L 4.015625 -4.5 C 4.015625 -4.007812 4.070312 -3.632812 4.1875 -3.375 C 4.3125 -3.125 4.535156 -3 4.859375 -3 Z M 4.859375 -3 "/></g></g></g></svg>